<svg width="32" height="32" viewBox="0 0 32 32" fill="none" xmlns="http://www.w3.org/2000/svg">
<g id="carbon:menu">
<path id="Vector" d="M4 24.7C4 24.4239 4.22386 24.2 4.5 24.2H27.5C27.7761 24.2 28 24.4239 28 24.7C28 24.9762 27.7761 25.2 27.5 25.2H4.5C4.22386 25.2 4 24.9762 4 24.7Z" fill="#688800"/>
<path id="Vector_2" d="M4 13.0996C4 12.8235 4.22386 12.5996 4.5 12.5996H27.5C27.7761 12.5996 28 12.8235 28 13.0996C28 13.3758 27.7761 13.5996 27.5 13.5996H4.5C4.22386 13.5996 4 13.3758 4 13.0996Z" fill="#688800"/>
<path id="Vector_3" d="M4 18.9004C4 18.6242 4.22386 18.4004 4.5 18.4004H27.5C27.7761 18.4004 28 18.6242 28 18.9004C28 19.1765 27.7761 19.4004 27.5 19.4004H4.5C4.22386 19.4004 4 19.1765 4 18.9004Z" fill="#688800"/>
<path id="Vector_4" d="M4 7.29999C4 7.02385 4.22386 6.79999 4.5 6.79999H27.5C27.7761 6.79999 28 7.02385 28 7.29999C28 7.57613 27.7761 7.79999 27.5 7.79999H4.5C4.22386 7.79999 4 7.57613 4 7.29999Z" fill="#688800"/>
</g>
</svg>
